# xmcd
#
# Track frame offsets:
#	150
#	26981
#	75270
#	93833
#	135257
#	152299
#	174863
#
# Disc length: 3009 seconds
#
# Revision: 1
# Processed by: cddbd v1.5.1PL0 Copyright (c) Steve Scherf et al.
# Submitted via: EasyCDDAExtractor 8.0.2.1
#
DISCID=3a0bbf07
DTITLE=Judas Priest - Brabanthallen Den Bosch 02-04-25 Disc 2
DYEAR=2005
DGENRE=Hard Rock
TTITLE0=Hellrider
TTITLE1=Victim Of Changes
TTITLE2=The Green Manalishi
TTITLE3=Painkiller
TTITLE4=Hell Bent For Leather
TTITLE5=Living After Midnight
TTITLE6=You've Got Another Thing Comin'
EXTD=
EXTT0=
EXTT1=
EXTT2=
EXTT3=
EXTT4=
EXTT5=
EXTT6=
PLAYORDER=
